<svg width="32" height="32" viewBox="0 0 32 32" fill="none" xmlns="http://www.w3.org/2000/svg">
<path d="M12 8C12 5.79086 13.7909 4 16 4C18.2091 4 20 5.79086 20 8V16C20 18.2091 18.2091 20 16 20C13.7909 20 12 18.2091 12 16V8Z" fill="#059DE9"/>
<path fill-rule="evenodd" clip-rule="evenodd" d="M11 8C11 5.23858 13.2386 3 16 3C18.7614 3 21 5.23858 21 8V16C21 18.7614 18.7614 21 16 21C13.2386 21 11 18.7614 11 16V8ZM16 5C14.3431 5 13 6.34315 13 8V16C13 17.6569 14.3431 19 16 19C17.6569 19 19 17.6569 19 16V8C19 6.34315 17.6569 5 16 5Z" fill="#059DE9"/>
<path d="M12 12C12 9.79086 13.7909 8 16 8C18.2091 8 20 9.79086 20 12V16C20 18.2091 18.2091 20 16 20C13.7909 20 12 18.2091 12 16V12Z" fill="white"/>
<path fill-rule="evenodd" clip-rule="evenodd" d="M11 12C11 9.23858 13.2386 7 16 7C18.7614 7 21 9.23858 21 12V16C21 18.7614 18.7614 21 16 21C13.2386 21 11 18.7614 11 16V12ZM16 9C14.3431 9 13 10.3431 13 12V16C13 17.6569 14.3431 19 16 19C17.6569 19 19 17.6569 19 16V12C19 10.3431 17.6569 9 16 9Z" fill="#059DE9"/>
<path fill-rule="evenodd" clip-rule="evenodd" d="M9 15C9.55228 15 10 15.4477 10 16C10 19.3628 12.6958 22.0714 16 22.0714C19.3042 22.0714 22 19.3628 22 16C22 15.4477 22.4477 15 23 15C23.5523 15 24 15.4477 24 16C24 20.1078 20.9535 23.5122 17 24.0091V28C17 28.5523 16.5523 29 16 29C15.4477 29 15 28.5523 15 28V24.0091C11.0465 23.5122 8 20.1078 8 16C8 15.4477 8.44772 15 9 15Z" fill="#059DE9"/>
</svg>
